<?xml version="1.0" encoding="utf-8"?>
<!-- Generator: Adobe Illustrator 24.2.1, SVG Export Plug-In . SVG Version: 6.00 Build 0)  -->
<svg version="1.1" id="Capa_1" xmlns="http://www.w3.org/2000/svg" xmlns:xlink="http://www.w3.org/1999/xlink" x="0px" y="0px"
	 viewBox="0 0 861 369.9" style="enable-background:new 0 0 861 369.9;" xml:space="preserve">
<style type="text/css">
	.st0{fill:#F2F2F2;}
</style>
<g>
	<g>
		<path class="st0" d="M313.3,10.2c-1.9,15.7-7.4,34.9-10.2,34.9c-0.7,0-5.8-2.1-11.1-4.6c-8.6-4-21.7-8-26.5-8
			c-1.3,0-0.6,1.9,2.4,8.1c4.6,9.3,8.8,23.9,8.3,28.9l-0.3,3.4l-9.4,0.7c-27.5,2.1-40.4,3.4-40.4,3.9c0,0.4,4.6,5.3,10.3,11.1
			c10.6,10.7,18.3,22.1,17.8,26.1c-0.2,1.5-5.6,5.9-16.6,13.5c-8.9,6.2-16.4,11.7-16.6,12.3c-0.2,0.5,0.9,1.3,2.6,1.7
			c11.2,2.4,16,4,20,6.3c5.5,3.2,11.1,8.1,13.9,12.1l2.1,2.9L248,175.1c-9.9,9.9-11.5,11.8-10.3,13c0.8,0.7,7.1,3.1,14,5.2
			s13,4.3,13.5,4.8s-0.3,5.9-2.3,13.2c-1.8,6.8-2.9,12.8-2.6,13.3c0.5,0.9,17.8,0.1,20.7-0.9c2.6-0.9,3.7,1.6,4.4,9.9
			c0.4,4.8,1,8.9,1.5,9.1c0.8,0.5,12.6-4.5,12.6-5.3c0-0.3-1.4-2.5-3-4.9c-4.8-7-8.1-14.3-11.1-24.3c-1.5-5.2-3.7-12.3-4.7-15.7
			c-1.2-3.5-2.3-8.2-2.5-10.5c-1.5-11.1-1.7-15.2-0.6-15.2c0.5,0,1,1.8,1,3.9c0.1,4.7,2.4,17.3,4,21.8c0.6,1.7,2.6,7.9,4.4,13.6
			c4.3,13.5,10.5,25.7,15.8,31c2.5,2.5,8,6.1,13.2,8.5l8.8,4.1l-0.3,3.9l-0.3,3.9l-23.4,7.8l-23.4,7.9l-3,10
			c-1.7,5.6-6.4,22-10.6,36.7c-4.2,14.6-8.2,27.2-8.8,27.8c-0.6,0.6-2.5,6.3-4.1,12.7c-1.6,6.3-3,12.4-3.4,13.3
			c-0.5,1.8,3.7,1.9,78.1,1.9c74.5,0,78.7-0.1,78.7-1.9c0-0.9-4.9-6.4-11-12.1c-6.1-5.7-11-10.9-11-11.7c0-0.7,3.8-4.6,8.3-8.6
			c11.5-9.9,11.6-10.5,6.9-22.5c-8-20.2-25.1-51.5-31.3-57.3c-2-1.9-2.7-3.7-2.7-6.5c0-4.3,0.9-5.3,6.3-7.1
			c5.5-1.8,10.8-5.9,14.5-11c2.9-4.1,4.2-4.8,12.3-7.3c4.9-1.6,8.9-3.3,8.9-3.7c0-0.5-1.9-3.2-4.2-6c-4.5-5.5-5.3-9.3-2.3-10.3
			c0.9-0.3,4.6-0.8,8.1-1.3c3.5-0.3,6.6-0.8,7-1.2c0.9-0.4-4.4-15.3-5.7-15.8c-0.4-0.2-0.8-1.2-0.8-2.2c0-1.3,1.5-2.2,5.2-3.1
			c6.5-1.7,22-9.1,22-10.5c0-0.6-2-2.1-4.4-3.4c-13.4-6.8-24.3-14.7-22.1-15.9c0.4-0.2,4.3-1.5,8.5-2.7s11-3.9,15.2-5.8
			c7.2-3.2,22.1-12.1,21.5-12.7c-0.4-0.3-28.8-12.5-31.6-13.4c-1.3-0.5-1.6-1.2-1-2.1c0.4-0.8,7.3-7.5,15.3-14.9
			c7.9-7.4,14.4-13.8,14.4-14.3c0-0.8-6.5-2-25.7-4.7c-6.9-1-13-2.1-13.4-2.5c-0.5-0.4,4.3-9.6,10.7-20.4
			c10.4-17.7,12.4-21.5,11.3-21.5c-0.2,0-8.8,3-19.1,6.8c-15,5.5-19.1,6.5-20.1,5.5c-2.3-2.3-4.5-19.6-4.5-35.1V3l-8.5,4.5
			c-10,5.3-23.3,15.7-29.5,23c-2.3,2.8-4.7,5.1-5.1,5.1c-0.5,0-4.5-4.8-9-10.8C329.7,14.6,316.6,0,315.2,0
			C314.8,0,313.9,4.6,313.3,10.2z M316.2,272.9c-3.9,3-23.7,55.4-22.1,58.1c0.5,0.9,5,5.2,10.1,9.6c5.1,4.4,9.4,8.5,9.6,9.1
			c0.2,0.6-1,2.9-2.8,5.1c-1.7,2.2-3.1,3.4-3.1,2.6c0-0.6,0.9-2.5,2.2-4l2.2-2.8l-10.1-9.4c-7-6.6-10.1-10.2-10.1-11.8
			c0-3.4,12-35.4,19.3-51.9c1.8-4,3.3-6,4.5-6C317.6,271.6,317.6,271.8,316.2,272.9z"/>
		<path class="st0" d="M491.7,147.3c-29.5,5.3-45.7,17-66.8,48.1c-4.6,6.7-4.9,7.5-4.9,14c0,5-1,10-3.8,18.5
			c-4.6,14.4-4.4,17.7,2.2,28.9c2.6,4.4,4.7,8.6,4.7,9.1c0,0.6-1.4,2.6-3.1,4.5c-5.6,6-5.5,15.2,0.3,21.4c3.4,3.5,11.2,6.7,13.3,5.3
			c0.5-0.3-0.2-2.7-1.6-5.5c-1.5-2.6-2.6-5.6-2.5-6.5c0-1,0.5-0.7,1.2,0.9c1.8,3.9,10.1,16.7,14.2,21.7
			c8.1,10.1,25.5,20.2,41.7,24.5c4.9,1.3,13.6,2.4,21,2.7c6.9,0.3,11.6,0.9,10.5,1.4c-6.3,2.2-35.2-1.9-48.5-6.9l-6.9-2.6l-1.8,2.4
			c-6.6,8.7-14.2,28.5-16,41.9l-0.5,4h65c61.4,0,65-0.1,64.5-1.9c-0.3-0.9-2-7.2-3.7-13.9c-3.7-14.5-6.6-21.7-11.3-27.9
			c-1.9-2.5-3.5-5.1-3.5-5.9c0.1-0.6,2.7-3.1,6-5.5c5.9-4.2,13.9-12.7,18.3-19.4c1.5-2.2,3.8-4,5.9-4.6c1.8-0.5,5.1-2.7,7.4-4.8
			c7.2-6.9,8-16.4,1.6-21.9c-2.2-1.9-2.5-2.8-1.9-6.2c0.4-2.1,1-4.1,1.5-4.4c0.4-0.3,1.4-3.4,2.1-6.8c1-5,1-8.9,0-19.7
			c-0.7-7.3-1.8-13.3-2.3-13.3s-0.8-2.9-0.7-6.6c0.2-5.8-0.3-7.5-4.1-14.9c-5-10-12.5-20.9-20-29c-4.6-5-7.7-7-19.5-12.9
			c-8.4-4.1-17-7.5-21.2-8.4C519.6,145.4,501.8,145.4,491.7,147.3z"/>
		<path class="st0" d="M368.6,261.7c0,0.3,2,3.2,4.5,6.5c2.5,3.3,6,8.4,7.9,11.2c4.9,7.9,16.4,32.4,19.7,42.1
			c3.7,10.4,3.4,11.1-7.7,20.4c-4.2,3.6-7.7,7.3-7.7,8.2c0,0.9,4.7,6,10.5,11.4c6.3,5.8,10.5,10.5,10.5,11.7c0,1.9,0.8,2,14.7,2
			c11,0,14.7-0.3,14.7-1.4c0-4.4-25.7-96.8-28.1-101.2c-0.4-0.8-7.1-3-14.9-5c-7.8-1.9-15.8-4.2-18-5.1
			C370.4,261,368.6,260.6,368.6,261.7z"/>
	</g>
</g>
</svg>
