<?xml version="1.0" encoding="utf-8"?>
<!-- Generator: Adobe Illustrator 24.2.1, SVG Export Plug-In . SVG Version: 6.00 Build 0)  -->
<svg version="1.1" id="Layer_1" xmlns="http://www.w3.org/2000/svg" xmlns:xlink="http://www.w3.org/1999/xlink" x="0px" y="0px"
	 viewBox="0 0 851 229.6" style="enable-background:new 0 0 851 229.6;" xml:space="preserve">
<style type="text/css">
	.st0{fill:#99FE00;}
</style>
<g>
	<path d="M485.9,75.4c-2,6.3-3.7,12.6-2.2,19.5c0.7,3.4,0.6,7.2,0.2,10.8c-1.3,12.5-2.7,25-4.4,37.5c-0.3,2.4-1.6,5.1-3.2,7
		c-4.1,5-5.9,10.2-5,17c0.7,5.2-0.5,10.8-1.5,16.1c-0.8,4.5-2.3,9-3.9,13.3c-0.5,1.4-3,3.4-3.8,3.1c-1.5-0.6-3-2.4-3.6-4.1
		c-0.6-2-0.2-4.3-0.3-6.4c-0.3-4.9-0.7-9.9-1-14.8c-0.1-2.1-0.4-4.5,0.3-6.4c1.9-5.3,0.9-10.1-1-15c-2.8-7-2.8-14.2,2.1-19.9
		c7.5-8.6,7.1-18.4,5.6-28.3c-1-7-0.4-13.4,1.9-20.1c2.8-8.2,4.4-16.7,6.7-25.1c0.9-3.4,2-6.7,3.2-9.9c1.5-3.8,3.9-5.4,7.5-2
		c0.7,0.6,1.7,0.9,3.7,1.9c2.4-5.3,4.7-10.5,7.3-15.6c2-4,4-8,6.6-11.6c0.9-1.3,4.4-2.5,5.2-1.9c1.4,1.2,2.7,4,2.4,5.7
		c-1,5-2.9,9.9-4.4,14.8c-1.4,4.6-2.1,9.1,1.8,13c0.8,0.8,1.6,2.2,1.4,3.1c-1.7,7.5,0.5,14.7,2.9,21.3c4.2,11.7,1.5,23.6,3.6,35.3
		c0.1,0.6,0.5,1.1,1.8,1.8c0.2-2,0.4-3.9,0.7-5.9c1.1-8,2.2-16.1,3.5-24.1c0.3-1.8,0.8-3.8,2-5.1c7.8-8.4,8.9-19.4,11.7-29.7
		c1.5-5.3,4.8-10.1,7-15.2c1.9-4.3,3.4-8.8,5-13.2c0.7-1.8,0.6-4.1,1.6-5.7c3-4.8,6.1-9.6,9.6-14c1.2-1.5,4.2-3,5.6-2.5
		c2.9,1.1,3.6,4,2.2,7.2c-2.4,5.8-5.2,11.6-6.9,17.6c-2.7,9.5-3.6,19-0.6,28.9c1.8,5.9,1.4,12.5,2,18.7c0.2,2,0.3,4,0.6,5.9
		c0.8,4.4,1.6,8.8,2.5,13.1c1.1,5.1,3.1,10.1,3.3,15.2c0.4,7.4-0.2,15-0.9,22.4c-0.3,3.1-3.2,6.4-2.6,8.9c2.3,8.8,1.6,18.1,5.3,26.6
		c1.2,2.7,2.3,6.3,1.5,8.8c-1.5,4.8-0.3,8.6,1.4,12.9c1.7,4.4,2.6,9.1,3.3,13.8c0.2,1.4-1.6,3.1-2.5,4.6c-2.5-1.7-8,0.7-7.8-4.2
		c0.2-5.5-3-8.4-5.7-12.4c-3.3-4.9-7-11.6-6.2-16.8c1.3-8.7-0.8-15.4-5.1-22.3c-0.4-0.7-0.6-1.6-0.7-2.4c-1.3-10.5-2.8-21-3.6-31.5
		c-0.3-3.5,1.4-7.1,2.4-10.6c2.8-9.7,2.9-9.7-4.9-18.1c0,3-0.5,6.1,0.1,8.9c1.5,6.6-0.4,12.3-4.6,17.2c-3.1,3.7-4.1,7.7-4.5,12.3
		c-0.5,5-2.2,9.9-3.3,14.9c-0.8,3.5-1.6,7.1-2.2,10.6c-0.3,2.1,0.3,4.5-0.4,6.4c-0.7,1.8-2.3,4-4,4.5c-1.2,0.4-3.9-1.2-4.6-2.6
		c-1.5-2.8-2.1-6.2-3.3-9.2c-0.8-1.9-2.3-3.6-3.4-5.5c-1.6-2.7-3.7-5.3-4.5-8.3c-1.9-7.7-3.1-15.5-4.7-23.2
		c-0.3-1.3-1.2-2.6-1.1-3.8c0.4-8.8-5.3-14.6-9.7-21.1c-1.3-2-1.8-4.8-2.2-7.3c-0.3-1.6,0.3-3.4,0.4-5
		C486.9,75.5,486.4,75.4,485.9,75.4z M504.6,24.9c-0.4-0.1-0.7-0.3-1.1-0.4c-0.9,1.3-1.9,2.5-2.6,4c-3.5,7.6-7,15.3-10.3,23
		c-2.1,4.9-3.6,5.4-7.2,2.3c-5.6,0.1-6.5,3.9-7.1,8c-0.4,2.8-1.2,5.5-1.9,8.3c-3.9,14-8.7,27.7-5.4,43c1.5,6.8-0.6,14.1-6,19.9
		c-4.1,4.4-5.5,10.2-3.6,15.9c2.5,7.4,4.1,14.7,1.6,22.4c-0.2,0.7,0.2,1.6,0.2,2.5c0.3,4.6,0.6,9.2,0.8,13.8c0.1,2,0,4,0,6
		c0.5,0,0.9,0,1.4,0.1c0.6-8.3,6.5-15.7,4.1-24.6c-2.2-8,0.3-14.7,5.7-20.7c1.1-1.3,2-3.1,2.2-4.8c1.2-10.4,2-20.8,3.4-31.1
		c1-7.1,1.2-13.9,0.6-21.1c-0.6-6.9,3.1-14.3,5.2-21.4c0.3-1,2.4-2.2,3.5-2.1c1.1,0.2,2.5,1.8,2.7,3c0.5,2.7-0.1,5.7,0.4,8.4
		c0.5,2.8,1.1,5.7,2.5,8c3.9,6.6,9.7,12.2,9.2,20.8c-0.1,1.1,0.2,2.4,0.7,3.4c4,7.9,5.2,16.3,5.2,25.1c0,1.5,1.3,3.6,2.6,4.2
		c4.1,2,5.2,5.2,5.4,9.3c0.2,2.4,1.2,4.7,1.8,7c0.7-0.1,1.3-0.2,2-0.3c0-1.9-0.2-3.8,0-5.6c0.6-3.9,1.4-7.8,2.2-11.7
		c1-4.5,2.6-8.9,3-13.4c0.5-5.5,2-10.1,5.2-14.7c2.5-3.7,3.6-8.7,4.4-13.3c1.3-6.9,1.6-14.1,2.9-21c0.3-1.6,2.6-2.9,3.9-4.4
		c0.8,1.8,1.7,3.6,2.2,5.5c0.8,3.3,0.3,7.6,2.2,9.7c4.1,4.6,4.4,8.9,2.6,14.3c-1.4,4.2-3.5,8.7-3.2,13c0.6,10.7,2.3,21.4,3.6,32
		c0.1,0.8,0.2,1.8,0.7,2.4c4.7,6.4,6.2,12.9,4.7,21.2c-0.9,5,3,11.1,5.7,16.3c1.9,3.7,5.2,6.6,8,10c0.1-1,0.8-3,0.1-4.2
		c-4.3-7.3-6.7-14.8-4-23.2c-4.1-6.2-3-13.7-5.1-20c-2.3-7.2-1.7-12.7,0-19.6c1.8-7.2,3-15.5,1.1-22.3c-1.9-6.8-2.1-13.6-3.2-20.4
		c-0.3-1.6-0.8-3.2-1.1-4.9c-2-13.6-4-27.2-6-40.8c-0.1-0.8,0.2-1.7,0.2-2.5c0.4-9.7,3.1-18.7,7.5-27.3c1.1-2.2,1.7-4.6,2.6-6.9
		c-0.4-0.2-0.9-0.4-1.3-0.6c-1.7,2.6-3.1,5.5-5,7.8c-3,3.7-4.7,7.6-5.3,12.5c-0.5,3.9-2.3,8.2-4.8,11.3c-4.8,6-7.1,12.7-8.3,20
		c-1.5,8.6-3.4,17-9.6,23.7c-1.2,1.3-2,3.2-2.3,4.9c-1.3,7.5-2.3,15.1-3.6,22.6c-1,5.5-2.3,11-3.7,16.4c-0.3,1-2.2,1.7-3.4,2.1
		c-0.3,0.1-1.5-1.3-1.6-2.1c-1.2-11-2.3-22-3.4-33c-0.2-1.9-0.5-3.9-0.9-5.8c-0.5-2.3-1.3-4.6-1.8-6.9c-0.4-1.6-0.6-3.2-0.8-4.9
		c-0.6-4.2-1.1-8.3-1.8-12.5c-0.3-1.9-0.2-4.3-1.3-5.5c-3.7-3.8-3.6-8.1-2.3-12.5c1.3-4.7,2.9-9.2,4.3-13.8
		C504.1,27.6,504.4,26.2,504.6,24.9z"/>
	<path d="M90.5,135.3c0.2,1.8,0,3.8,0.6,5.5c1.2,3.2,3.4,6.2,0.8,9.8c-0.2,0.3-0.3,1.1-0.1,1.4c3.3,5.4,1.2,10.4-0.4,15.7
		c-0.7,2.3,0.8,5.8,2.3,8.2c2.6,4.4,4.9,8.4,2.4,13.9c-0.9,2,0.2,5.2,1.2,7.5c1.5,3.4,0.6,5.9-1,8.9c-1.6,2.9-2.1,6.3-3.3,9.4
		c-0.8,2.1-2,4.1-3,6.2c-1.7-1.6-4-2.9-5-4.9c-1-1.9,0-5.1-1.2-6.7c-4.4-5.7-3.8-12.4-5.2-18.8c-1-4.6-4.5-8.6-5.8-13.1
		c-1.2-4.1-2.2-9-1.1-12.9c1.4-5,0.6-8.8-2.1-12.6c-1.9-2.7-2.2-5.1-1-8.3c2.4-6.6,0.1-13.1-2-19.4c-0.7-2-0.8-4.2-1.3-6.2
		c-0.6-2.3-0.8-4.8-2-6.8c-2-3.2-4.2-6-2.7-10.1c0.4-1-0.2-2.3-0.3-3.4c-0.8-5-2.7-9.6-1.1-15c0.8-2.6-0.9-7-3-9.3
		c-5-5.7-6.9-11.6-4.5-18.8c1.3-3.9,0.5-7.2-2.4-10.5c-1.8-2.1-2.9-5.6-2.8-8.4c0.2-3.4,2.7-5.6,6.7-4.7c0.1,0,0.4,0,0.5-0.1
		c5.8-6.7,13.3-7,21.5-7.3c4-0.1,8.2-4.1,11.8-6.9c6.3-5.1,12.6-5.1,19.4-1.4c4.3,2.4,8.7,4.8,13.1,7.2c0.6,0.3,1.2,0.8,1.8,0.8
		c5.6-0.4,10.3,0.3,11.6,7.1c0.1,0.4,2.3,0.6,3.5,0.4c5.8-0.9,10.3,2.5,10.3,8.4c-0.1,5.1-1,10.3,3.4,14.3c0.2,0.2,0.4,0.7,0.3,0.9
		c-2.3,8.8,2.5,18.6-3.9,26.8c-0.6,0.8-1.1,1.7-1.4,2.6c-2.1,6.2-4,12.4-6.2,18.6c-1.7,4.8-5.1,7.6-10.1,9.4
		c-3.6,1.3-6.4,4.8-9.2,7.1c2.6,3.6,4.9,6.8,7.2,9.8c0.6,0.8,1.7,1.4,2.6,2c4.8,3.2,11.8,4.4,15,8.6c5.9,7.7,13.7,14.4,16.5,24.3
		c0.2,0.6,0.3,1.4,0.7,1.8c4.2,4.5,8.7,8.8,12.8,13.5c2.4,2.8,4.4,6,6.1,9.2c1.7,3,2.3,6.7,4.4,9.3c4.4,5.8,5.2,12.1,4.4,18.9
		c-0.1,1.3-1.4,3.3-2.3,3.4c-1.3,0.1-3.3-1-3.9-2.1c-3.7-7.5-11.5-12.7-12-22c-0.1-1.5-2.4-3-3.7-4.4c-2.8-3-5.6-5.9-8.4-8.8
		c-1.9-1.9-4.1-3.6-6-5.5c-2.5-2.6-5-5.2-7-8.1c-1.7-2.5-2.4-5.2-6.7-3.7c-1.4,0.5-5.2-1.8-5.8-3.6c-1.9-5.2-5.2-8.7-10.2-10.6
		c-1.1-0.4-2.8-1.1-3.5-0.6c-3.7,2.8-5.4,0.2-7.2-2.3c-1.3-1.8-2.3-3.7-3.6-5.4c-0.8-1-2.2-2.5-3-2.3c-6.3,1.8-9.4-3-13.3-6.2
		C91.7,135.1,91.1,135.2,90.5,135.3z M184.4,212.4c0.5-0.1,0.9-0.3,1.4-0.4c-0.9-3.1-0.9-7.1-2.9-9.1c-6.6-6.8-4.7-18.8-14.9-23.1
		c-0.5-0.2-0.7-1.1-1-1.7c-4.4-6.4-11.6-10.8-12.7-19.4c-0.1-0.4-0.7-0.7-1-1.1c-2.8-3.8-5.4-7.8-8.5-11.3c-1.8-2.1-4.6-5.1-6.7-4.9
		c-3.5,0.4-5.3-0.4-6.7-3.3c-0.4-0.7-1.6-1.6-2.3-1.5c-3.5,0.8-4.3-1.7-5.4-3.9c-1.6-3.2-2.8-6.4-7.1-7.6c-3.6-1-3.5-4.2-0.6-7
		c1.9-1.8,3.6-3.9,5.6-5.6c1.6-1.4,3.3-3.4,5.1-3.6c5.8-0.6,7.7-4.5,9.2-9.1c1.7-5.4,3.5-10.9,5.4-16.2c0.5-1.4,1.6-2.5,2.3-3.8
		c0.8-1.4,1.9-2.9,2-4.5c0.5-5.9,0.7-11.9,0.9-17.8c0-0.8-0.1-1.9-0.7-2.3c-4.7-3.7-3.7-8.7-3.4-13.7c0.3-5.2-1.3-6.1-6.7-5.3
		c-2,0.3-5.9-0.5-6.1-1.4c-1.3-5.6-5.3-6.2-9.7-6.7c-0.9-0.1-1.7-0.9-2.6-1.4c-4.7-2.5-9.3-5.3-14.1-7.5c-4.4-1.9-9.8-3.1-13.1,1
		c-9.7,12.3-27,5.6-37.6,15.8c-2.1,2-3,3-2.1,5.1c0.6,1.5,1.9,2.7,3.1,3.8c3.2,3,3.9,6.5,2.4,10.5c-2.5,6.4-1.6,11.9,3.5,16.9
		c3,3,5.7,6.7,4.1,11.2c-1.9,5.1-0.2,9.8,0.5,14.6c0.2,1.5,0.9,3.1,0.5,4.4c-1.1,3.5,0.5,6,2.4,8.7c1.3,1.9,2.1,4.4,2.7,6.7
		c0.7,2.6,0.8,5.4,1.1,8.1c0.7,6.4,1.2,12.7,1.9,19.1c0.3,2.5,0.1,5.1,1,7.3c1.6,4,4.6,7.7,2.2,12.2c-2.7,4.9-1.2,9.3,0.8,13.8
		c3.3,7.3,8.8,13.9,6.7,22.7c-0.1,0.4,0.1,1,0.3,1.4c1.9,4,3.8,7.9,4.9,10.3c0.9-1.7,3-5,4.5-8.4c0.7-1.6,0.7-3.6,0.5-5.4
		c-0.3-3.1-2.2-6.5-1.3-9.1c1.7-5.2,0.5-9-2.5-13c-3-4-3.7-8.3-1.2-13.1c1-1.8,1.3-4.2,1-6.3c-0.8-6.2-2.5-12.3-2.9-18.5
		c-0.1-2.6,2.1-5.6,3.9-7.9c0.3-0.4,3.7,1.4,5.7,2.3c2.4,1.2,4.9,3.8,7.1,3.6c4.1-0.5,6.3,1.3,8.4,4.1c1.6,2.1,3,4.3,4.8,7
		c5.6-5.6,9.2,0.8,12.9,2.5c3.7,1.7,5.8,7.2,8.7,11.2c6.9-1.3,7.2-1.1,10.9,5.9c1.1,2,2.2,5.1,3.9,5.5c6.1,1.5,7.9,6.6,10.8,11
		c1.1,1.7,3.2,2.8,4.7,4.3c2.4,2.5,6,4.8,6.6,7.7C176.1,203,179.5,208,184.4,212.4z"/>
	<path d="M412.3,153.1c-7.5,5.1-13.6,3.9-20.5-3.9c-4.7,4.2-6.7,0.7-8.7-3.2c-2.1-4-4.3-7.9-7.5-11.5c0,2.7,0.2,5.5,0,8.2
		c-0.5,7.2-4,9.1-9.8,5.1c-0.1,1.9,0.2,3.9-0.5,5.4c-0.8,1.6-2.3,3.5-3.9,3.9c-1,0.3-3.1-1.7-3.9-3.1c-1.7-3.4-2.9-7-4.4-10.5
		c-1.2-3.1-2.5-6.2-3.7-9.3c-0.6,0-1.2,0.1-1.8,0.1c-1.7,4.1-3.4,8.3-5,12.5c-1.1,2.9-1.7,5.9-3.1,8.7c-0.6,1.3-2.4,2.8-3.5,2.7
		c-1.2-0.1-3.1-1.9-3.2-3.2c-0.8-5.8-3.5-11.4,0.3-17.7c3-5,4.3-10.9,3.3-17.6c-0.6-4.5,3.4-9.8,5.8-14.6c1.1-2.3,3.2-4.2,4.8-6.3
		c0.2-0.3,0.1-0.7,0.3-0.9c2.1-2.3,4.3-4.5,6.5-6.7c1.3,2.7,3.2,5.2,3.8,8c1.9,9.2,3.2,18.6,4.8,27.9c0.1,0.5,0.7,1,2.1,2.7
		c0.6-3,1.2-4.9,1.3-6.8c0.2-4.3-0.2-8.7,0.5-12.9c0.4-2.3,2.4-4.2,3.8-6.3c1.9,1.9,5.1,3.5,5.4,5.6c0.7,4.9,3.4,7.2,8.2,9
		c1.5-3.8,2.6-7.8,4.7-11.2c1.4-2.4,4.5-5.9,6.2-5.6c3.8,0.7,3.9,4.9,3.3,8.3c-1.1,6.8-2.4,13.6-3.2,20.8c3.7-5.6,11.6-7,12.9-15.1
		c1.2-7.5,3.8-14.7,6-22c0.6-2,1.4-4.3,2.9-5.7c1.3-1.3,4.6-2.8,5.1-2.3c1.5,1.5,2.8,4,2.9,6.1c0.1,2.4-1.4,4.7-1.9,7.2
		c-0.3,1.7-0.8,4,0,5.3c2.4,4,1.1,7.5,0,11.4c-2.9,10.6-3.3,21.3,1,31.7c0.6,1.5,0.9,3.2,1.3,4.8c0.9,4,0.3,7.8-4,9
		c-4.1,1.1-5.6-2.6-7.3-5.5C413.1,154.9,412.8,154.2,412.3,153.1z M420.7,90.2c-0.6-0.2-1.2-0.4-1.9-0.6c-0.8,2-1.7,4-2.3,6.1
		c-2.1,8.3-4,16.7-6.3,25c-0.4,1.6-1.9,3.2-3.4,4.1c-7.4,4.5-11.2,10.7-11.8,19.5c-0.3,4.9,3,5.8,6.1,7.2c2.9,1.4,5.7,1.6,8-1.5
		c1.2-1.6,2.9-2.7,4.4-4c0.9,1.9,1.9,3.7,2.8,5.6c0.9,2,1.8,4,2.8,6c0.7-0.2,1.5-0.5,2.2-0.7c-0.5-2.9-0.6-6-1.7-8.7
		c-4.8-11.9-4.3-23.7-0.5-35.6c0.5-1.6,0.2-3.5,0.2-5.3c0-3.7-0.3-7.4-0.1-11.1C419.4,94.2,420.2,92.2,420.7,90.2z M352.8,96.4
		c-0.3-0.1-0.7-0.2-1-0.3c-0.6,2-1,4.1-1.9,5.9c-1,2-2.1,4.5-3.8,5.4c-5.1,2.7-6.9,7.6-5.9,12c1.6,7.7-1,14.1-4.1,20.5
		c-2.2,4.4-1.3,8,1.4,12.2c0.6-1.3,1.3-2,1.3-2.7c-0.1-6.7,3.4-12.1,6.6-17.6c1.5-2.7,3.6-3.5,5.3-0.7c2.6,4.1,4.7,8.5,6.8,12.9
		c1.2,2.4,2,5.1,2.9,7.6c0.8-0.2,1.6-0.5,2.4-0.7C359.3,132.8,356,114.6,352.8,96.4z M394.1,106.4c-0.5-0.2-1.1-0.4-1.6-0.6
		c-2,5.2-3.8,10.3-5.9,15.4c-0.7,1.7-1.9,3.3-2.8,4.9c-1.3-1.3-2.7-2.5-3.9-3.8c-0.6-0.6-0.8-1.8-1.4-1.9c-4.7-1.4-5.5-5.3-6.3-9.3
		c-0.2-0.9-1-1.7-1.5-2.5c-1,2.8-0.9,5.2-1.1,7.7c-0.3,4.2,0.2,9-1.6,12.6c-3.2,6.7,2.4,11.2,2.5,16.9c0.8-3.4,0.8-6.8,0.8-10.1
		c0-2.6-0.3-5.3,0.1-7.9c0.5-2.5,2.4-2.9,3.9-0.8c3.1,4.3,6,8.7,8.9,13.1c1.2,1.8,2.3,3.7,3.6,6.1C390,132.3,392,119.3,394.1,106.4z
		"/>
	<path d="M765.8,124.8c8.1-4,17-8,25.6-12.6c6.1-3.3,11.8-7.3,17.7-10.9c0.7-0.4,1.6-1,2.3-0.9c1.5,0.2,3,0.7,4.5,1.1
		c-0.4,1.4-0.4,3.3-1.3,4.2c-3.7,3.8-7.4,7.8-11.6,10.9c-6.4,4.7-13.3,8.7-19.9,13.2c-1.7,1.2-3.3,2.8-4.4,4.5
		c-3.7,5.4-8.2,9.3-14.4,11.8c-3.2,1.3-6,3.9-8.7,6.2c-4.9,4.3-9.3,9.3-14.5,13.3c-3.9,3-7.9,5.6-9,10.7c-0.1,0.5-0.3,1-0.6,1.3
		c-9.3,11.4-16.6,24.5-28.6,33.6c-1.6,1.2-3.3,2.8-5.1,3c-10.4,1.2-17.8,7.5-25.2,14.1c-1.1,0.9-4.2,1.4-4.6,0.9
		c-1.1-1.5-1.6-3.7-1.5-5.6c0-1.3,1.2-2.8,2.3-3.7c5.5-4.5,11.1-8.9,16.7-13.4c2.5-2,5-4.2,7.3-6.5c5.5-5.5,10.9-11.1,16.5-16.5
		c2.4-2.3,3.8-4.3,1.9-7.8c-0.6-1.2-0.1-3.7,0.9-4.9c1.9-2.5,4.6-4.3,6.6-6.7c1.3-1.5,2.1-3.6,3.1-5.3c0.7-1.1,1.3-2.3,2.3-3
		c1.6-1.1,3.4-2.1,5.3-2.6c5.4-1.5,9.2-3.6,8.2-10.5c-0.4-2.8,1.5-6,2.5-9c1.4-4.2,2.8-8.3-1.5-11.8c-0.4-0.3-0.6-0.8-0.7-1.3
		c-1.5-8.6-3.2-17.2-4.5-25.8c-0.8-5.6-1.3-11.2-1.5-16.8c-0.1-3,1-6,1.6-9c0.4-2.1,1.1-4.1,1.2-6.2c0.1-3-0.4-6-0.1-9
		c0.1-1.4,1.4-2.7,2.2-4.1c1.2,0.8,2.9,1.3,3.4,2.4c2.7,6.4,5.1,12.9,7.7,19.3c2.2,5.3,4.5,10.5,6.8,15.8c0.9,2,2.6,3.9,2.6,5.8
		C757.1,104.1,757.8,114.8,765.8,124.8z M809,107.1c-0.3-0.5-0.6-1-0.9-1.5c-2.4,1.3-5.1,2.3-7.1,4.1c-8,6.7-16.9,11.8-26.7,15.3
		c-4.5,1.6-8.5,3.3-11.7,7.1c-0.9,1.1-3.1,1-4.7,1.5c0.1-1.5-0.2-3.2,0.4-4.6c1.7-3.8,1.5-7-0.8-10.8c-3.1-5.1-5.1-10.6-4.5-17
		c0.4-3.8,0.5-8.7-1.5-11.5c-4.4-6-6.2-12.7-8-19.6c-1.1-4.2-2.7-8.4-4-12.5c-1.2,4.5-1.4,8.6-1.8,12.7c-0.3,3.3-1.2,6.6-1.3,9.9
		c0,3.6,0.5,7.3,1,10.9c1.4,9.3,2.9,18.6,4.4,27.9c0.1,0.5,0.3,1.1,0.7,1.2c5.6,2.5,3.3,6.8,2.5,10.7c-1.3,6.1-2.3,12.3-4.1,18.3
		c-0.6,2-2.7,4-4.7,5.1c-3,1.7-6.4,2.6-9.6,3.9c0.4,0.5,0.8,0.9,1.3,1.4c-1.2,1.8-2.2,3.9-3.8,5.4c-1.9,1.8-4.4,3-6.4,4.7
		c-2.5,2-3.9,4.1-2,7.7c0.7,1.4-0.3,4.9-1.7,6c-11.1,9.5-18.7,22.8-32.3,29.8c-4.7,2.4-8.3,7-12.3,10.7c0.4,0.5,0.9,1,1.3,1.5
		c1.3-1.1,2.7-2.1,4-3.2c5.5-4.8,10.9-9.6,18.7-10.8c3.6-0.6,7.1-3.3,10.2-5.6c8.5-6.7,14.2-15.7,20.2-24.4c1.4-2,3.5-3.8,4.3-6.1
		c2-5.8,6.1-9.2,10.8-12.6c4.9-3.6,8.9-8.3,13.5-12.2c3.9-3.2,8.3-5.8,12.3-8.9c3.6-2.8,7.1-5.7,10.5-8.8c2.1-1.9,3.5-4.5,5.8-6
		c6-4.2,12.4-7.8,18.4-11.9C802.8,112.5,805.8,109.7,809,107.1z"/>
	<path d="M249.3,115c-3.1,0.6-6.3,2.4-8,1.4c-3.8-2.2-1.7-6.2-0.8-9.5c4-15.4,10.3-30.3,8.7-46.8c-0.5-5.1,4.3-9,10.2-9.2
		c3.1-0.1,6.1,4,5,8.9c-1.8,8-0.9,15.7,0.3,23.5c0.5,3.5-1.1,7.4-2,12c2.3-0.6,4.1-0.7,5.5-1.6c7.9-5.3,15.7-10.9,23.5-16.3
		c4-2.7,7.8-5.8,12-7.9c1.7-0.9,4.5,0.3,6.8,0.6c-0.8,1.8-1.2,4.1-2.5,5.4c-6,5.9-12.3,11.4-18.3,17.3c-1.3,1.2-2.3,2.9-2.8,4.6
		c-2,6.9-6.7,10.8-13.2,13.2c-6.6,2.5-6.9,3.7-3.3,9.7c2.1,3.4,4.2,6.9,6.7,9.9c1.7,2,4.4,3.2,6.5,5c2.2,2,4.8,4,6.2,6.5
		c5.5,10.4,6.5,22.1,9.7,33.2c0.7,2.2,1.4,4.4,2.1,6.7c2.2,6.9,0.8,11.1-5.2,14.9c-3,1.9-4.4-0.5-5.2-2.6
		c-3.6-8.9-5.8-18.5-10.7-26.5c-4.6-7.4-7-15.6-11-23.1c-1.4-2.6-3.4-4.9-5.1-7.2c-4.2,1.4-6.2,3.8-7,8.2c-1.5,7.5-3.6,14.8-6.2,22
		c-0.8,2.4-4.2,5.9-5.7,5.5c-3.5-0.8-5.3-4.2-4.4-8.3c1.8-8.1,3.7-16.2,5.3-24.3c0.4-1.9-0.3-4.1-0.4-6.1c-0.1-1.4-0.6-3-0.3-4.3
		C246.7,124.7,248.1,119.6,249.3,115z M243.1,112.5c0.5,0.4,0.9,0.7,1.4,1.1c0.6-1,0.9-2.2,1.8-2.8c1.6-1.1,3.5-1.8,5.2-2.7
		c0.6,1.9,1.8,4,1.6,5.8c-0.9,5.5-2.4,11-3.5,16.5c-0.2,0.8,0,1.6,0,2.4c0.2,2.9,1,5.9,0.5,8.7c-1.2,7-3.1,13.9-4.6,20.9
		c-0.4,1.9-0.3,3.9-0.5,5.8c0.6,0.3,1.2,0.6,1.8,0.9c0.2-0.6,0.5-1.3,0.7-1.9c2-7.2,4.4-14.3,5.9-21.6c1.1-5.4,2.2-10,8.3-12
		c3-1,4.6-1.1,6.1,1.7c5.4,10.1,11.1,20.1,16.3,30.4c3.4,6.7,6,13.8,9,20.8c1.6-0.2,3.5-0.5,5.5-0.7c-1.9-6.4-4.4-12.6-5.4-19.1
		c-1-6.6-1.6-13.2-5.9-18.7c-0.5-0.6-0.6-1.6-0.7-2.4c-0.2-4.1-2.1-6.2-6.2-7.1c-2-0.5-3.8-2.6-5.1-4.4c-3.3-4.6-6.4-9.3-9.4-14.1
		c-3-4.7-1.7-8.9,3.4-11.4c1.6-0.8,3.4-1.3,5.1-2c4.4-1.8,7.1-4.8,8.9-9.4c1.4-3.4,4.6-6.3,7.3-9c4.5-4.6,9.3-8.9,14-13.3
		c-0.4-0.4-0.8-0.9-1.2-1.3c-3,2.2-6.4,4-8.9,6.7c-7.9,8.3-18.2,13-27.8,18.7c-6.1,3.6-7.5,2.7-7.7-4.6c0-1.6,0.8-3.2,0.9-4.8
		c0.3-2.9,0.5-5.8,0.4-8.7c-0.3-5.8-2.5-11.5-0.1-17.5c0.9-2.3,0.1-5.2,0.1-7.8c-0.6-0.3-1.3-0.6-1.9-0.9c-1.7,2.2-5.2,4.5-4.9,6.4
		c1.3,11.7-2,22.4-5.2,33.3C246.3,100.1,244.8,106.3,243.1,112.5z"/>
	<path d="M640.3,139.5c-1.2,6.1-2.1,12.4-3.9,18.3c-0.6,2.2-3.5,3.7-5.3,5.5c-1.3-2.1-3.5-4.1-3.6-6.2c-0.3-5.8,0.3-11.6,0.5-17.4
		c0-1,0.2-2.2-0.3-2.9c-2.4-4.1-1.3-7.8,0.3-11.8c0.6-1.4-0.2-4.2-1.4-5.4c-2.9-3-3.3-6.2-2.8-10.1c1.4-9.7,2.2-19.4,3.6-29.1
		c0.3-2.3,2.1-4.4,3.2-6.6c1.7,1.8,3.9,3.4,4.8,5.5c1,2.3,0.6,5.1,0.9,8.8c2.7-3.2,4.8-5.6,6.9-8c2.2-2.4,4.5-3.6,8-1.9
		c2,0.9,4.5,0.8,6.8,0.9c5.2,0.2,7.5,3.2,7.5,8.3c0,2.6,1.2,5.4,2.7,7.6c5.7,8.5,3.4,16.1-6,20c-4,1.7-7.7,4.2-11.8,6.5
		c2.4,2.7,4.7,4.6,6,7c1.5,2.8,2.1,6.1,3.2,9.1c0.6,1.8,1.2,3.7,1.9,5.5c1.3,3.7,3.6,7.4,3.8,11.1c0.3,6.8,0.1,13.5,3.4,19.9
		c0.7,1.4-1.1,4.9-2.7,6.4c-0.8,0.7-5.1-0.4-5.6-1.6c-2.4-5.7-5.2-11.7-5.8-17.7c-1-10-8-15.4-12.9-22.6
		C641.3,139.1,640.8,139.3,640.3,139.5z M632.2,86.8c-0.3,0.1-0.7,0.1-1,0.2c-1.1,8.4-2.3,16.7-3.2,25.1c-0.2,1.6,0.5,3.9,1.7,4.8
		c3.7,3.1,3.1,6.4,2,10.4c-0.7,2.3-0.1,5.1-0.1,7.6c0,2.6,0.2,5.2,0.2,7.8c0,5.1,0,10.1,0,15.9c0.9-1.1,1.4-1.4,1.5-1.8
		c0.9-8.9,1.7-17.7,2.6-26.6c0.1-1.3,0-2.9,0.7-3.8c1.1-1.6,2.8-2.8,4.2-4.2c0.9,1.7,2.6,3.4,2.5,4.9c-0.4,6.1,2.6,10.3,6.1,15
		c3.7,5,8.9,9.4,9.4,16.6c0.4,5.2,1.9,10.4,3.1,15.6c0.3,1.1,1.4,2,2.2,3c0.9-1.7,0.9-2.9,0.5-3.8c-2.6-5.5-3.3-11.3-3.3-17.4
		c0-3.9-2.2-7.8-3.5-11.7c-0.6-1.9-2.2-3.7-2.1-5.4c0.6-5.6-2.2-9.1-6.1-12.3c-3.9-3.3-3.7-7,0.7-9.5c3.9-2.2,7.9-4.3,11.9-6.2
		c5.4-2.7,6.9-7.8,3.6-12.9c-1.4-2.1-3.1-4-4-6.3c-1-2.5-0.4-6.5-2-7.6c-2.3-1.6-5.9-1.4-9-1.6c-1.8-0.1-4.3,0.2-5.4,1.4
		c-2.5,2.8-4.3,6.3-6.6,9.3c-0.7,0.9-2,1.4-3.1,2.1c-0.7-1-1.5-1.9-1.9-3C633,90.5,632.7,88.7,632.2,86.8z"/>
	<path d="M695.4,112.8c8.7,2.8,17.1,5.2,25.3,8.4c2.2,0.9,5.2,4.2,5,6.1c-0.5,5-5.9,8.5-9.9,7.5c-6.7-1.7-13.4-3.6-20.4-5.5
		c-0.3,6.2-0.6,12.5-1,18.8c-0.1,1.3,0.3,2.9-0.3,3.9c-4.3,7.1-2.9,15.2-4.5,22.8c-1.1,5.2-2.5,10.3-4.1,15.4
		c-0.4,1.2-2.1,3.1-2.7,2.9c-1.3-0.4-3.3-1.9-3.3-3c-0.3-5.6-0.1-11.2-0.1-16.8c0-5.1-0.1-10.1-0.2-15.2c0-0.5-0.3-1-0.3-1.5
		c0.6-9.1,1.3-18.2,2.1-28.6c-2.3-0.8-6-1.9-9.5-3.6c-2-1-3.5-3-5.2-4.5c1.5-1.3,2.8-2.9,4.5-3.8c2.8-1.4,6-2.1,8.8-3.4
		c0.9-0.4,1.8-1.9,1.9-3c2.3-15.6,5.1-31.1,12.9-45.1c0.6-1.1,1.5-2.5,2.5-3c1.9-0.7,5.4-1.7,5.9-1c1.3,1.8,1.7,4.6,1.7,6.9
		c0,1.5-1.3,3-2.3,4.4c-2.5,3.5-4,6.5-0.3,10.5c1.2,1.3,0.4,5-0.2,7.4C699.6,98,697.3,105.9,695.4,112.8z M721.5,126.6
		c-0.1-0.5-0.1-1-0.2-1.5c-6.1,0.6-10.2-7.1-17.1-3.4c-0.3,0.2-1.5-0.4-1.6-0.8c-0.9-3.6-3.5-2.6-5.9-2.5c-4.9,0.2-6.9-2.7-5.4-7.4
		c2.4-7.8,4.8-15.5,6.9-23.4c0.4-1.6,0.2-4-0.8-5.1c-3-3.3-2.1-6.2-0.1-9.5c1.6-2.7,3-5.5,4.5-8.3c-0.6-0.4-1.2-0.7-1.7-1.1
		c-1,1.3-2.4,2.4-2.9,3.8c-2.7,7.1-5.6,14.2-7.6,21.5c-1.9,7-2.9,14.2-4.1,21.3c-0.6,3.6-1.9,6.2-6,6.8c-2.8,0.4-5.6,1.5-8.9,2.4
		c4.1,1.7,7.4,3.3,10.9,4.3c5.5,1.6,5.4,1.7,4,7.5c-1.2,4.7-1.5,9.6-2,14.4c-0.2,2.2,0.1,4.4,0.1,6.6c0,1.6-0.3,3.3-0.3,4.9
		c-0.1,5.4,0.1,10.8-0.1,16.3c-0.1,3.4-0.7,6.9-1,10.3c0.5,0.1,1,0.1,1.5,0.2c0.4-1.4,0.9-2.7,1.3-4.1c2.6-9.6,0.1-20.1,5.3-29.2
		c0.4-0.6,0.1-1.6,0.1-2.5c0.2-6.5,0.2-13,0.8-19.5c0.3-3.2,2.4-5.2,6-4.1c6.6,1.9,13.3,3.9,18.9,5.6
		C718,129,719.8,127.8,721.5,126.6z"/>
	<path d="M202.8,137.3c5.5-0.9,9.5-1.9,13.6-2.2c2.2-0.2,4.9,0.2,6.8,1.2c3,1.7,5.5,2.5,8.8,0.5c1.1-0.7,3.9-0.4,4.7,0.5
		c1,1.2,1.6,3.9,1,5.2c-2.1,4.3-5.1,7.8-10.9,6.8c-1.6-0.3-3.4,0.9-5.1,1.4c-2.3,0.7-4.7,1.2-6.8,2.3c-1.8,0.9-3.5,2.3-4.7,3.9
		c-1.4,2-2,4.6-3.4,6.6c-1,1.3-3.1,3-4.2,2.7c-1.5-0.5-3-2.4-3.7-4.1c-1.7-4.2-2.8-8.6-4.4-12.8c-0.3-0.9-2.1-1.3-3.3-1.6
		c-5.1-1.3-6-2.7-4.9-7.7c0.3-1.2,0-3-0.7-3.8c-2.9-2.8-2-5.6,0-8c5-6.2,5.9-13.9,7.8-21.2c1.3-5,3.6-8.3,8.4-10.2
		c1.8-0.7,3.5-2.4,4.5-4.1c3.2-5.8,9.6-8.1,16-6c2.2,0.7,5-0.3,7.3,0.4c2.6,0.7,5,2.4,7.5,3.6c-1.5,2.3-3.1,4.6-4.7,6.9
		c-0.2,0.2-0.6,0.4-0.9,0.4c-12.1-1-15.5,10.9-23.5,16c-2.7,1.7-4.3,4.3-0.9,7.3c2.5,2.2,1.5,4.7,0.2,7.2
		C205.7,131.2,204.4,134.1,202.8,137.3z M233.2,93.5c-0.1-0.6-0.2-1.1-0.3-1.7c-0.4-0.2-0.8-0.6-1.2-0.7c-4.3-0.5-8.7-1.7-13-1.3
		c-3.1,0.3-7.2,2-8.6,4.4c-1.9,3.4-4.3,5-7.4,6.7c-2.1,1.1-4.3,3.5-5,5.8c-2.6,8-3.1,16.6-9.1,23.2c-0.3,0.3-0.2,0.8-0.3,1.3
		c1.5-0.2,2.9-0.4,5.6-0.8c-1.5,4.6-2.8,8.3-3.7,11c3.2,2.5,6.8,4,8.4,6.7c2.3,3.8,3.2,8.5,4.7,12.9c0.7-0.3,0.9-0.3,0.9-0.5
		c0.3-0.4,0.6-0.8,0.8-1.2c2.4-5.5,4.4-11.5,12.5-10.3c0.6,0.1,1.4-0.9,2.1-1.2c2.7-0.9,5.5-2.1,8.3-2.3c4-0.4,5.1-0.9,5.7-5.3
		c-4.4,3.1-7.9,1-12.1-0.6c-3.6-1.4-8.4,0.1-12.6,0.5c-2.2,0.2-6,1.7-6.4,1c-1.3-2.3-2.1-5.3-1.9-8c0.2-2.1,2.3-4,3.1-6.1
		c0.5-1.3,0.6-3.6-0.2-4.3c-4.4-3.9-2.3-7.1,0.8-10.1c2.4-2.3,5-4.4,7.4-6.6c1.1-1,2.7-2.2,2.8-3.3c0.2-6.9,5-7.2,10-7.6
		C227.3,94.8,230.2,94,233.2,93.5z"/>
	<path d="M574.7,136.9c-1.2-4-2.5-8-3.5-12c-0.5-1.9-1.6-4.3-0.8-5.7c4.2-7.5,4.5-17.1,12.8-22.4c2.7-1.7,4.3-5,6.6-7.4
		c3.6-3.9,7.9-6.3,13.3-4.6c6.1,1.9,11.2,5.2,13.5,11.5c2.6,7.2,3.6,14.4-0.1,21.7c-0.8,1.5,0.2,4.5,1.3,6.3
		c5.8,9.4,5.8,11.1-1.3,19.8c-2.1,2.6-4.3,5.1-6.5,7.6c-4.4,4.9-10.6,5-16.4,6c-0.8,0.1-1.9-0.5-2.8-0.9c-4.6-2.4-9.3-4.6-13.7-7.4
		c-1.7-1.1-2.9-3.5-3.5-5.5c-0.6-2-0.1-4.3-0.1-6.4C573.9,137.2,574.3,137,574.7,136.9z M578.7,136.5c-1.7,7.5-1.7,7.4,4.6,10.3
		c2.1,1,4.7,1.7,6,3.4c3,3.8,6.6,3.6,10.1,2.2c3.5-1.4,6.8-3.6,10-5.7c1.2-0.8,1.8-2.4,2.7-3.6c6.9-8.9,6.7-8.7,1.1-18.2
		c-1.3-2.1-2-5.9-1-7.8c3.5-7,2.2-13.5,0-20.3c-2.2-6.8-13.4-10.6-18.6-5.9c-8.6,7.8-15.5,16.9-19.5,28c-0.5,1.5,0.3,3.5,0.7,5.2
		C576.1,128.1,577.5,132.3,578.7,136.5z"/>
	<path d="M165.9,154.5c-0.8-5.7-1.8-11.4-2.5-17.1c-0.3-2.4,0-4.9-0.1-7.4c-0.1-2.5,0.5-5.7-0.8-7.2c-3.9-4.4-2.8-8.5-0.5-12.8
		c1.4-2.5,1.4-4.4-0.4-6.8c-1-1.3-0.8-3.6-0.8-5.5c0-1.5,0.7-2.9,0.8-4.4c0.5-7.1,1.5-8.5,8.4-9.8c3.5-0.7,5.5,1.1,5.7,4.5
		c0.4,6,2.3,11.9,0,18c-1.4,3.6-0.6,7.4,2.9,10.3c3,2.5,2.2,5.8,0.2,8.6c-2.1,3.1-2,5.9-1,9.4c0.8,2.7,0.2,5.8-0.2,8.7
		c-0.6,5.1-1.8,10-2.3,15.1c-0.4,3.7-0.4,8.6-4.7,8.7c-4.6,0.1-5-4.9-5.2-8.8c-0.1-1.2,0-2.3,0-3.5
		C165.7,154.5,165.8,154.5,165.9,154.5z M169.7,161.3c0.4,0,0.8,0,1.2,0.1c0.2-0.6,0.4-1.1,0.5-1.7c1-6.1,2.1-12.3,3-18.5
		c0.3-1.9,0.7-4.3-0.2-5.8c-2.5-4.5-1-8.2,1.1-12.2c0.7-1.3,0.6-4.2-0.4-5c-4.7-3.8-3.9-8.6-3.5-13.7c0.5-5.5,0.4-11,0.6-17
		c-5.3,1.6-9.7,10.3-7.4,13.3c3.4,4.3,1.8,7.9,0.2,12c-0.8,2-0.4,4.6,0.1,6.9c0.6,3.1,2.1,6.1,2.4,9.3
		C168.4,139.7,169,150.5,169.7,161.3z"/>
	<path d="M158.6,68.3c0.9-2.7,1.5-4.3,1.8-5.9c0.4-2.2,1.2-4.5,0.8-6.6c-0.8-4.6,1.5-7.3,5.3-8.4c4.1-1.2,5.5,1.9,6.1,5.3
		c0.1,0.3,0,0.8,0.2,1c7.3,4.3,3.4,10.9,2.8,16.5c-0.2,2.4-2.3,5.3-4.5,6.5c-1.5,0.8-4.8-0.4-6.5-1.7
		C162.2,73.1,160.4,70.4,158.6,68.3z M166.8,51.3c-0.3,0.4-2,1.8-1.8,2.3c2,4.6-1.1,8.3-1.6,12.3c-0.3,2,2.3,4.6,3.9,6.6
		c0.5,0.6,3.3,0.3,3.4,0c0.9-4.3,2.5-8.7,2-12.8C172.4,56.9,169.1,54.5,166.8,51.3z"/>
	<path d="M623.8,127.1c-3-3.7-6.6-6.3-3-11C620.1,120,627.7,121.2,623.8,127.1z"/>
	<path class="st0" d="M504.6,24.9c-0.3,1.3-0.5,2.7-0.9,3.9c-1.4,4.6-3,9.2-4.3,13.8c-1.2,4.5-1.4,8.7,2.3,12.5
		c1.1,1.2,1,3.6,1.3,5.5c0.6,4.2,1.2,8.3,1.8,12.5c0.2,1.6,0.4,3.3,0.8,4.9c0.5,2.3,1.3,4.6,1.8,6.9c0.4,1.9,0.7,3.8,0.9,5.8
		c1.2,11,2.2,22,3.4,33c0.1,0.8,1.3,2.2,1.6,2.1c1.3-0.5,3.2-1.1,3.4-2.1c1.5-5.4,2.7-10.9,3.7-16.4c1.3-7.5,2.3-15.1,3.6-22.6
		c0.3-1.7,1.2-3.6,2.3-4.9c6.2-6.7,8.1-15.1,9.6-23.7c1.3-7.3,3.5-14,8.3-20c2.5-3.1,4.3-7.3,4.8-11.3c0.6-4.9,2.2-8.8,5.3-12.5
		c2-2.4,3.4-5.2,5-7.8c0.4,0.2,0.9,0.4,1.3,0.6c-0.9,2.3-1.5,4.7-2.6,6.9c-4.4,8.6-7.1,17.6-7.5,27.3c0,0.8-0.3,1.7-0.2,2.5
		c2,13.6,3.9,27.2,6,40.8c0.2,1.6,0.8,3.2,1.1,4.9c1.1,6.8,1.3,13.5,3.2,20.4c1.9,6.9,0.6,15.1-1.1,22.3c-1.7,6.8-2.3,12.4,0,19.6
		c2.1,6.3,1.1,13.8,5.1,20c-2.6,8.4-0.3,15.9,4,23.2c0.7,1.1-0.1,3.1-0.1,4.2c-2.8-3.4-6.2-6.3-8-10c-2.6-5.2-6.6-11.3-5.7-16.3
		c1.5-8.4,0-14.8-4.7-21.2c-0.5-0.6-0.6-1.6-0.7-2.4c-1.3-10.7-3-21.3-3.6-32c-0.2-4.3,1.8-8.7,3.2-13c1.8-5.3,1.4-9.7-2.6-14.3
		c-1.9-2.2-1.4-6.5-2.2-9.7c-0.5-1.9-1.5-3.7-2.2-5.5c-1.4,1.5-3.6,2.8-3.9,4.4c-1.2,7-1.6,14.1-2.9,21c-0.9,4.6-1.9,9.6-4.4,13.3
		c-3.2,4.6-4.7,9.3-5.2,14.7c-0.4,4.5-2,8.9-3,13.4c-0.8,3.9-1.6,7.8-2.2,11.7c-0.3,1.8,0,3.8,0,5.6c-0.7,0.1-1.3,0.2-2,0.3
		c-0.6-2.3-1.6-4.7-1.8-7c-0.3-4.1-1.4-7.3-5.4-9.3c-1.3-0.6-2.6-2.8-2.6-4.2c0-8.8-1.2-17.2-5.2-25.1c-0.5-1-0.8-2.3-0.7-3.4
		c0.6-8.6-5.3-14.2-9.2-20.8c-1.4-2.4-2.1-5.3-2.5-8c-0.5-2.7,0.1-5.7-0.4-8.4c-0.2-1.2-1.6-2.9-2.7-3c-1.1-0.2-3.2,1-3.5,2.1
		c-2.1,7.1-5.8,14.4-5.2,21.4c0.6,7.2,0.3,14.1-0.6,21.1c-1.4,10.3-2.2,20.8-3.4,31.1c-0.2,1.7-1,3.6-2.2,4.8
		c-5.4,6-7.9,12.6-5.7,20.7c2.4,8.9-3.5,16.2-4.1,24.6c-0.5,0-0.9,0-1.4-0.1c0-2,0.1-4,0-6c-0.2-4.6-0.5-9.2-0.8-13.8
		c-0.1-0.8-0.5-1.7-0.2-2.5c2.6-7.7,1-15-1.6-22.4c-1.9-5.7-0.5-11.4,3.6-15.9c5.4-5.7,7.5-13.1,6-19.9c-3.4-15.2,1.5-28.9,5.4-43
		c0.8-2.7,1.5-5.5,1.9-8.3c0.6-4.1,1.5-7.9,7.1-8c3.7,3.1,5.2,2.6,7.2-2.3c3.3-7.7,6.8-15.4,10.3-23c0.7-1.4,1.7-2.6,2.6-4
		C503.9,24.6,504.3,24.8,504.6,24.9z"/>
	<path class="st0" d="M184.4,212.4c-4.9-4.4-8.3-9.5-9.5-16.3c-0.5-2.9-4.2-5.2-6.6-7.7c-1.5-1.5-3.6-2.6-4.7-4.3
		c-2.8-4.4-4.7-9.4-10.8-11c-1.7-0.4-2.8-3.5-3.9-5.5c-3.8-7-4-7.2-10.9-5.9c-2.9-4-4.9-9.5-8.7-11.2c-3.7-1.7-7.4-8.1-12.9-2.5
		c-1.8-2.7-3.2-4.9-4.8-7c-2-2.8-4.3-4.5-8.4-4.1c-2.2,0.3-4.7-2.4-7.1-3.6c-1.9-0.9-5.3-2.8-5.7-2.3c-1.8,2.3-4,5.2-3.9,7.9
		c0.3,6.2,2.1,12.3,2.9,18.5c0.3,2-0.1,4.5-1,6.3c-2.5,4.8-1.9,9.1,1.2,13.1c3,4,4.2,7.8,2.5,13c-0.9,2.6,1,6,1.3,9.1
		c0.2,1.8,0.2,3.9-0.5,5.4c-1.5,3.5-3.6,6.7-4.5,8.4c-1.1-2.4-3-6.3-4.9-10.3c-0.2-0.4-0.4-1-0.3-1.4c2.1-8.9-3.5-15.5-6.7-22.7
		c-2-4.5-3.5-8.9-0.8-13.8c2.4-4.5-0.6-8.2-2.2-12.2c-0.9-2.2-0.8-4.9-1-7.3c-0.6-6.4-1.2-12.7-1.9-19.1c-0.3-2.7-0.5-5.5-1.1-8.1
		c-0.6-2.3-1.4-4.8-2.7-6.7c-1.9-2.7-3.5-5.1-2.4-8.7c0.4-1.3-0.2-2.9-0.5-4.4c-0.7-4.8-2.4-9.5-0.5-14.6c1.6-4.4-1.1-8.2-4.1-11.2
		c-5.1-5-6-10.5-3.5-16.9c1.5-4,0.8-7.5-2.4-10.5c-1.2-1.1-2.6-2.4-3.1-3.8c-0.8-2.1,0.1-3.1,2.1-5.1c10.6-10.2,27.9-3.5,37.6-15.8
		c3.2-4.1,8.7-3,13.1-1c4.9,2.2,9.4,4.9,14.1,7.5c0.9,0.5,1.7,1.3,2.6,1.4c4.5,0.5,8.5,1.1,9.7,6.7c0.2,0.9,4.1,1.7,6.1,1.4
		c5.4-0.8,7,0.1,6.7,5.3c-0.3,5-1.3,10,3.4,13.7c0.5,0.4,0.7,1.5,0.7,2.3c-0.2,5.9-0.4,11.9-0.9,17.8c-0.1,1.5-1.2,3-2,4.5
		c-0.7,1.3-1.8,2.5-2.3,3.8c-1.9,5.4-3.7,10.8-5.4,16.2c-1.5,4.7-3.3,8.6-9.2,9.1c-1.8,0.2-3.6,2.2-5.1,3.6c-2,1.7-3.7,3.8-5.6,5.6
		c-2.9,2.8-3,6,0.6,7c4.3,1.2,5.5,4.4,7.1,7.6c1.1,2.2,1.9,4.7,5.4,3.9c0.6-0.1,1.9,0.8,2.3,1.5c1.5,2.9,3.2,3.7,6.7,3.3
		c2.1-0.2,4.9,2.8,6.7,4.9c3.1,3.5,5.7,7.5,8.5,11.3c0.3,0.4,0.9,0.7,1,1.1c1.1,8.5,8.3,13,12.7,19.4c0.4,0.5,0.5,1.5,1,1.7
		c10.2,4.3,8.3,16.3,14.9,23.1c2,2,2,6,2.9,9.1C185.3,212.2,184.8,212.3,184.4,212.4z M84.8,108.6c-1.3,3.9,1.1,5.4,4.7,4.3
		c1.7-0.5,4.1-1,5.3-0.2c3.3,2.4,5.4,0.8,8-1c3-2,6.1-4.2,9.4-5.1c4.9-1.3,7.9-4.2,8.2-8.8c0.3-4.7,2.2-8.3,5.2-11.5
		c3.4-3.6,3.8-7.5,1.9-11.9c-0.5-1.1-0.9-2.9-0.3-3.7c2.3-3.2,0.2-5-1.6-7.4c-1.7-2.4-2.4-5.5-4-8c-1.5-2.4-4-6.5-5.3-6.3
		c-5,1.1-7.4-1.1-9.5-4.9c-0.3-0.5-1-1.1-1.6-1.1C99,43,92.5,40.4,86.8,45.8c-1.9,1.8-5.2,3-7.8,2.9c-6-0.2-9.4,3.6-7.7,9.4
		c1,3.6,1.4,7.3,2.4,10.9c0.6,2.2,1.7,4.2,2.5,6.3c0.8,2.1,2.3,4.3,2,6.2c-0.6,3.3-0.1,5.8,2.4,8c0.8,0.7,1.5,1.8,1.7,2.9
		C83.2,97.8,84,103.2,84.8,108.6z"/>
	<path class="st0" d="M420.7,90.2c-0.5,2-1.3,4-1.4,6.1c-0.2,3.7,0.1,7.4,0.1,11.1c0,1.8,0.3,3.7-0.2,5.3
		c-3.8,11.9-4.3,23.7,0.5,35.6c1.1,2.7,1.1,5.8,1.7,8.7c-0.7,0.2-1.5,0.5-2.2,0.7c-0.9-2-1.8-4-2.8-6c-0.9-1.9-1.9-3.7-2.8-5.6
		c-1.5,1.3-3.2,2.4-4.4,4c-2.3,3.1-5.1,2.8-8,1.5c-3.1-1.4-6.4-2.3-6.1-7.2c0.5-8.8,4.4-15,11.8-19.5c1.4-0.9,2.9-2.5,3.4-4.1
		c2.3-8.3,4.2-16.7,6.3-25c0.5-2.1,1.5-4.1,2.3-6.1C419.5,89.8,420.1,90,420.7,90.2z M413.6,137.2c-1-4.9-3.7-7.9-6-6
		c-2.8,2.3-5.4,5.4-6.8,8.6c-1.4,3.4,3.1,7.5,5.6,5.6C409.3,143.2,411.3,140,413.6,137.2z"/>
	<path class="st0" d="M352.8,96.4c3.2,18.2,6.5,36.4,9.7,54.6c-0.8,0.2-1.6,0.5-2.4,0.7c-1-2.5-1.7-5.2-2.9-7.6
		c-2.1-4.4-4.2-8.8-6.8-12.9c-1.7-2.8-3.8-2-5.3,0.7c-3.2,5.5-6.6,10.9-6.6,17.6c0,0.7-0.7,1.4-1.3,2.7c-2.6-4.2-3.6-7.8-1.4-12.2
		c3.2-6.3,5.7-12.7,4.1-20.5c-0.9-4.5,0.8-9.3,5.9-12c1.8-0.9,2.8-3.4,3.8-5.4c0.9-1.8,1.3-3.9,1.9-5.9
		C352.1,96.2,352.4,96.3,352.8,96.4z M353.8,122.8c-0.8-4.4-1.3-7.7-2.1-10.9c-0.2-0.8-1.3-1.9-1.9-1.9c-0.9,0.1-2.2,0.8-2.6,1.6
		c-1.3,2.7-2.5,5.4-3.2,8.3c-1.2,5.4,4.1,4.1,6.5,5.4C351,125.7,352.9,123.5,353.8,122.8z"/>
	<path class="st0" d="M394.1,106.4c-2.1,13-4.2,25.9-6.4,39.8c-1.4-2.3-2.4-4.2-3.6-6.1c-2.9-4.4-5.8-8.9-8.9-13.1
		c-1.5-2.1-3.4-1.7-3.9,0.8c-0.5,2.6-0.1,5.2-0.1,7.9c0,3.4,0,6.7-0.8,10.1c-0.1-5.7-5.7-10.3-2.5-16.9c1.8-3.6,1.2-8.3,1.6-12.6
		c0.2-2.5,0-4.9,1.1-7.7c0.5,0.8,1.4,1.6,1.5,2.5c0.8,4,1.6,7.9,6.3,9.3c0.6,0.2,0.9,1.4,1.4,1.9c1.3,1.3,2.6,2.6,3.9,3.8
		c1-1.6,2.1-3.2,2.8-4.9c2.1-5.1,4-10.3,5.9-15.4C393.1,106,393.6,106.2,394.1,106.4z"/>
	<path class="st0" d="M809,107.1c-3.2,2.6-6.3,5.4-9.7,7.7c-6,4.1-12.4,7.7-18.4,11.9c-2.2,1.6-3.7,4.2-5.8,6c-3.4,3-6.9,6-10.5,8.8
		c-4,3.1-8.4,5.7-12.3,8.9c-4.7,3.9-8.7,8.6-13.5,12.2c-4.7,3.4-8.9,6.8-10.8,12.6c-0.8,2.2-2.9,4-4.3,6.1
		c-6,8.7-11.8,17.8-20.2,24.4c-3,2.4-6.5,5.1-10.2,5.6c-7.8,1.3-13.2,6-18.7,10.8c-1.3,1.1-2.7,2.1-4,3.2c-0.4-0.5-0.9-1-1.3-1.5
		c4.1-3.6,7.6-8.2,12.3-10.7c13.6-7,21.2-20.2,32.3-29.8c1.4-1.2,2.4-4.7,1.7-6c-2-3.6-0.5-5.7,2-7.7c2.1-1.7,4.5-2.9,6.4-4.7
		c1.6-1.5,2.6-3.6,3.8-5.4c-0.4-0.5-0.8-0.9-1.3-1.4c3.2-1.3,6.6-2.2,9.6-3.9c1.9-1.1,4.1-3.1,4.7-5.1c1.7-6,2.8-12.2,4.1-18.3
		c0.8-3.9,3.2-8.2-2.5-10.7c-0.4-0.2-0.6-0.8-0.7-1.2c-1.5-9.3-3-18.6-4.4-27.9c-0.5-3.6-1.1-7.3-1-10.9c0-3.3,0.9-6.6,1.3-9.9
		c0.4-4.1,0.6-8.2,1.8-12.7c1.4,4.2,2.9,8.3,4,12.5c1.8,6.9,3.5,13.6,8,19.6c2,2.8,1.9,7.7,1.5,11.5c-0.7,6.4,1.4,11.9,4.5,17
		c2.3,3.7,2.5,7,0.8,10.8c-0.6,1.3-0.3,3-0.4,4.6c1.6-0.5,3.8-0.4,4.7-1.5c3.1-3.8,7.2-5.5,11.7-7.1c9.8-3.5,18.7-8.6,26.7-15.3
		c2.1-1.7,4.7-2.7,7.1-4.1C808.4,106.1,808.7,106.6,809,107.1z"/>
	<path class="st0" d="M243.1,112.5c1.6-6.2,3.1-12.4,4.9-18.5c3.2-10.9,6.4-21.7,5.2-33.3c-0.2-1.9,3.2-4.3,4.9-6.4
		c0.6,0.3,1.3,0.6,1.9,0.9c0,2.6,0.8,5.6-0.1,7.8c-2.4,6-0.2,11.7,0.1,17.5c0.2,2.9-0.1,5.8-0.4,8.7c-0.1,1.6-1,3.2-0.9,4.8
		c0.2,7.3,1.6,8.2,7.7,4.6C276,93,286.3,88.2,294.2,80c2.5-2.6,5.9-4.5,8.9-6.7c0.4,0.4,0.8,0.9,1.2,1.3c-4.7,4.4-9.5,8.7-14,13.3
		c-2.7,2.8-5.9,5.6-7.3,9c-1.8,4.6-4.5,7.6-8.9,9.4c-1.7,0.7-3.5,1.2-5.1,2c-5,2.5-6.3,6.8-3.4,11.4c3,4.8,6.1,9.5,9.4,14.1
		c1.3,1.8,3.2,4,5.1,4.4c4.1,1,6.1,3,6.2,7.1c0,0.8,0.2,1.8,0.7,2.4c4.3,5.5,4.9,12,5.9,18.7c1,6.5,3.5,12.8,5.4,19.1
		c-2,0.3-3.9,0.5-5.5,0.7c-3-7-5.6-14.1-9-20.8c-5.1-10.3-10.8-20.3-16.3-30.4c-1.5-2.8-3.1-2.7-6.1-1.7c-6.2,2-7.2,6.6-8.3,12
		c-1.5,7.3-3.9,14.4-5.9,21.6c-0.2,0.6-0.4,1.3-0.7,1.9c-0.6-0.3-1.2-0.6-1.8-0.9c0.2-1.9,0.1-3.9,0.5-5.8c1.5-7,3.4-13.9,4.6-20.9
		c0.5-2.8-0.3-5.8-0.5-8.7c-0.1-0.8-0.2-1.6,0-2.4c1.2-5.5,2.7-10.9,3.5-16.5c0.3-1.8-1-3.9-1.6-5.8c-1.8,0.9-3.6,1.6-5.2,2.7
		c-0.8,0.6-1.2,1.9-1.8,2.8C244.1,113.2,243.6,112.9,243.1,112.5z"/>
	<path class="st0" d="M632.2,86.8c0.5,1.8,0.8,3.7,1.5,5.5c0.4,1.1,1.3,2,1.9,3c1-0.7,2.4-1.2,3.1-2.1c2.3-3.1,4.1-6.5,6.6-9.3
		c1.1-1.2,3.6-1.5,5.4-1.4c3.1,0.1,6.8-0.1,9,1.6c1.6,1.2,1,5.1,2,7.6c0.9,2.3,2.6,4.2,4,6.3c3.3,5,1.8,10.2-3.6,12.9
		c-4,2-8,4-11.9,6.2c-4.4,2.6-4.7,6.3-0.7,9.5c3.9,3.2,6.6,6.8,6.1,12.3c-0.2,1.7,1.4,3.6,2.1,5.4c1.3,3.9,3.5,7.8,3.5,11.7
		c0,6.1,0.7,11.9,3.3,17.4c0.4,0.9,0.4,2.1-0.5,3.8c-0.8-1-1.9-1.9-2.2-3c-1.2-5.1-2.8-10.3-3.1-15.6c-0.5-7.2-5.7-11.6-9.4-16.6
		c-3.5-4.7-6.4-8.9-6.1-15c0.1-1.6-1.6-3.3-2.5-4.9c-1.4,1.4-3.1,2.6-4.2,4.2c-0.7,1-0.6,2.5-0.7,3.8c-0.9,8.9-1.7,17.7-2.6,26.6
		c0,0.4-0.6,0.7-1.5,1.8c0-5.8,0-10.8,0-15.9c0-2.6-0.1-5.2-0.2-7.8c0-2.5-0.6-5.3,0.1-7.6c1.2-4,1.7-7.3-2-10.4
		c-1.1-1-1.8-3.2-1.7-4.8c0.9-8.4,2.1-16.8,3.2-25.1C631.5,87,631.9,86.9,632.2,86.8z M651.2,91.8c-2.2,1-4.5,1.5-6.1,3
		c-2.4,2.2-4.3,4.9-6.3,7.5c-0.5,0.6-1,1.8-0.7,2.2c2.3,3.3,4.8,6.5,7.3,9.7c2.3-1.8,5-3.3,6.8-5.5c1-1.3,0.6-3.7,1-5.6
		c0.3-1.5,0.7-3,1.2-4.5c0.5-1.6,2.2-3.6,1.7-4.4C655.3,93.1,653.1,92.7,651.2,91.8z"/>
	<path class="st0" d="M721.5,126.6c-1.8,1.2-3.5,2.4-5.7,3.8c-5.6-1.7-12.3-3.7-18.9-5.6c-3.6-1.1-5.7,0.9-6,4.1
		c-0.5,6.5-0.5,13-0.8,19.5c0,0.8,0.3,1.8-0.1,2.5c-5.2,9.1-2.7,19.6-5.3,29.2c-0.4,1.4-0.8,2.7-1.3,4.1c-0.5-0.1-1-0.1-1.5-0.2
		c0.4-3.4,0.9-6.9,1-10.3c0.2-5.4,0.1-10.8,0.1-16.3c0-1.6,0.3-3.3,0.3-4.9c0-2.2-0.3-4.4-0.1-6.6c0.5-4.8,0.8-9.8,2-14.4
		c1.4-5.7,1.5-5.8-4-7.5c-3.5-1-6.7-2.7-10.9-4.3c3.3-0.9,6-2,8.9-2.4c4.1-0.6,5.3-3.2,6-6.8c1.2-7.1,2.2-14.3,4.1-21.3
		c2-7.3,4.9-14.4,7.6-21.5c0.5-1.4,1.9-2.5,2.9-3.8c0.6,0.4,1.2,0.7,1.7,1.1c-1.5,2.8-2.9,5.6-4.5,8.3c-2,3.2-2.9,6.2,0.1,9.5
		c1,1.1,1.2,3.5,0.8,5.1c-2.1,7.8-4.5,15.6-6.9,23.4c-1.5,4.7,0.5,7.6,5.4,7.4c2.5-0.1,5-1.1,5.9,2.5c0.1,0.4,1.3,1,1.6,0.8
		c6.9-3.8,11,4,17.1,3.4C721.4,125.7,721.5,126.1,721.5,126.6z"/>
	<path class="st0" d="M233.2,93.5c-2.9,0.5-5.9,1.3-8.8,1.6c-5,0.4-9.8,0.7-10,7.6c0,1.2-1.7,2.3-2.8,3.3c-2.4,2.3-5.1,4.3-7.4,6.6
		c-3.1,3.1-5.1,6.2-0.8,10.1c0.8,0.7,0.7,3,0.2,4.3c-0.8,2.2-2.9,4-3.1,6.1c-0.2,2.7,0.6,5.7,1.9,8c0.4,0.7,4.1-0.8,6.4-1
		c4.2-0.4,9-1.9,12.6-0.5c4.2,1.6,7.7,3.7,12.1,0.6c-0.6,4.3-1.7,4.9-5.7,5.3c-2.8,0.3-5.5,1.4-8.3,2.3c-0.8,0.2-1.5,1.3-2.1,1.2
		c-8-1.2-10,4.8-12.5,10.3c-0.2,0.4-0.5,0.8-0.8,1.2c-0.1,0.1-0.3,0.1-0.9,0.5c-1.5-4.3-2.4-9-4.7-12.9c-1.6-2.7-5.1-4.2-8.4-6.7
		c0.9-2.7,2.1-6.4,3.7-11c-2.6,0.4-4,0.6-5.6,0.8c0.1-0.5,0-1,0.3-1.3c6-6.6,6.5-15.3,9.1-23.2c0.7-2.3,2.9-4.7,5-5.8
		c3.2-1.7,5.5-3.3,7.4-6.7c1.3-2.4,5.5-4.1,8.6-4.4c4.3-0.4,8.7,0.8,13,1.3c0.4,0.1,0.8,0.4,1.2,0.7C233,92.3,233.1,92.9,233.2,93.5
		z"/>
	<path class="st0" d="M578.7,136.5c-1.3-4.2-2.6-8.3-3.8-12.5c-0.5-1.7-1.3-3.7-0.7-5.2c4-11.1,10.9-20.2,19.5-28
		c5.2-4.7,16.3-0.9,18.6,5.9c2.2,6.8,3.6,13.3,0,20.3c-1,2-0.3,5.7,1,7.8c5.6,9.5,5.8,9.4-1.1,18.2c-0.9,1.2-1.5,2.8-2.7,3.6
		c-3.2,2.1-6.5,4.3-10,5.7c-3.6,1.4-7.2,1.6-10.1-2.2c-1.3-1.7-3.9-2.4-6-3.4C577.1,143.9,577.1,143.9,578.7,136.5z M582.5,122.4
		c0.3,5.5,0.9,9.6,6,11.5c1.3,0.5,2.3,2.3,3,3.7c2,4.1,5.2,4.3,8.8,3c3.8-1.5,3.4-4.5,2.7-7.9c-0.6-2.9-0.8-6.2-0.1-9
		c1-3.8,0.5-6.7-2.8-8.7c-3.5-2.2-3.8-4.9-2.6-8.5c0.5-1.6-0.3-3.6-0.5-5.4c-1.9,0.5-4.9,0.5-5.6,1.7
		C588.1,109.5,585.2,116.4,582.5,122.4z"/>
	<path class="st0" d="M169.7,161.3c-0.7-10.8-1.3-21.6-2.2-32.4c-0.3-3.1-1.8-6.1-2.4-9.3c-0.4-2.3-0.8-4.9-0.1-6.9
		c1.6-4.2,3.2-7.7-0.2-12c-2.3-3,2.1-11.7,7.4-13.3c-0.2,6-0.1,11.5-0.6,17c-0.5,5.1-1.3,9.9,3.5,13.7c0.9,0.7,1.1,3.7,0.4,5
		c-2.2,4-3.6,7.7-1.1,12.2c0.8,1.5,0.4,3.9,0.2,5.8c-0.9,6.2-2,12.3-3,18.5c-0.1,0.6-0.3,1.1-0.5,1.7
		C170.5,161.3,170.1,161.3,169.7,161.3z"/>
	<path class="st0" d="M166.8,51.3c2.3,3.1,5.6,5.6,6,8.4c0.5,4.2-1.1,8.6-2,12.8c-0.1,0.3-2.9,0.6-3.4,0c-1.7-2-4.2-4.6-3.9-6.6
		c0.5-4.1,3.6-7.8,1.6-12.3C164.8,53.1,166.4,51.7,166.8,51.3z"/>
	<path d="M84.8,108.6c-0.8-5.4-1.6-10.9-2.6-16.3c-0.2-1-0.9-2.2-1.7-2.9c-2.6-2.2-3-4.7-2.4-8c0.3-1.9-1.2-4.2-2-6.2
		c-0.8-2.1-1.9-4.1-2.5-6.3c-0.9-3.6-1.3-7.3-2.4-10.9c-1.7-5.8,1.7-9.6,7.7-9.4c2.6,0.1,5.9-1.1,7.8-2.9c5.7-5.4,12.2-2.8,18.5-2.6
		c0.5,0,1.3,0.6,1.6,1.1c2.1,3.8,4.4,6,9.5,4.9c1.3-0.3,3.8,3.9,5.3,6.3c1.6,2.5,2.3,5.6,4,8c1.7,2.4,3.8,4.1,1.6,7.4
		c-0.5,0.8-0.1,2.6,0.3,3.7c1.9,4.4,1.5,8.3-1.9,11.9c-3,3.2-4.9,6.8-5.2,11.5c-0.3,4.6-3.2,7.5-8.2,8.8c-3.4,0.9-6.5,3.1-9.4,5.1
		c-2.6,1.8-4.7,3.4-8,1c-1.1-0.8-3.6-0.4-5.3,0.2C85.9,114,83.5,112.6,84.8,108.6z M88.4,108.5c1.5-0.4,4-1.8,4.7-1.2
		c5.1,4.5,8.1,0.4,11.8-2.2c2-1.4,4.8-1.6,6.8-2.9c1.9-1.2,3.6-3,4.6-5c2.1-4,3.3-8.6,5.8-12.3c2.2-3.5,3.1-6.5,1.2-10.2
		c-0.4-0.9-1.1-2.2-0.8-2.8c2.7-4.5-0.7-6.9-2.9-9.8c-1.1-1.5-1.6-3.5-1.9-5.4c-0.3-2.6-1-3.7-4-3.6c-2.2,0.1-4.9-0.9-6.5-2.4
		c-5.4-5.2-12.9-5.7-18.9-1.4c-2.5,1.8-5.9,2.5-8.9,3.5c-1.3,0.5-3.6,0.3-3.8,1c-0.5,1.3-0.1,3.1,0.3,4.6c0.5,1.9,1.4,3.6,1.8,5.5
		c1.6,7.2,3.1,14.4,4.6,21.6c0,0.2,0.2,0.3,0.3,0.4C86.8,92.8,88.9,100.2,88.4,108.5z"/>
	<path d="M413.6,137.2c-2.4,2.8-4.3,6-7.2,8.2c-2.5,1.9-7-2.2-5.6-5.6c1.4-3.3,4-6.4,6.8-8.6C409.9,129.3,412.7,132.3,413.6,137.2z"
		/>
	<path d="M353.8,122.8c-0.8,0.7-2.8,2.9-3.3,2.6c-2.5-1.4-7.7-0.1-6.5-5.4c0.6-2.9,1.9-5.6,3.2-8.3c0.4-0.8,1.7-1.6,2.6-1.6
		c0.6,0,1.7,1.1,1.9,1.9C352.5,115.1,352.9,118.4,353.8,122.8z"/>
	<path d="M651.2,91.8c1.9,0.9,4.2,1.2,4.9,2.4c0.5,0.8-1.1,2.9-1.7,4.4c-0.5,1.5-0.9,3-1.2,4.5c-0.4,1.9,0,4.3-1,5.6
		c-1.8,2.2-4.5,3.7-6.8,5.5c-2.5-3.2-5-6.4-7.3-9.7c-0.3-0.4,0.2-1.6,0.7-2.2c2-2.6,3.9-5.3,6.3-7.5C646.6,93.4,649,92.9,651.2,91.8
		z M649.9,97.3c-0.4-0.3-0.8-0.6-1.1-0.9c-2.2,2.8-4.5,5.6-6.9,8.6c1.5,1.8,2.9,3.5,4.3,5.1c0.6-0.1,1.1-0.2,1.7-0.2
		C648.5,105.7,649.2,101.5,649.9,97.3z"/>
	<path d="M582.5,122.4c2.7-6,5.5-12.9,9-19.6c0.6-1.2,3.7-1.2,5.6-1.7c0.2,1.8,1,3.8,0.5,5.4c-1.2,3.7-0.9,6.4,2.6,8.5
		c3.2,2,3.7,4.9,2.8,8.7c-0.7,2.8-0.5,6.1,0.1,9c0.7,3.4,1.1,6.4-2.7,7.9c-3.6,1.4-6.8,1.2-8.8-3c-0.7-1.4-1.7-3.3-3-3.7
		C583.4,132.1,582.9,127.9,582.5,122.4z M592.8,112.6c-1.9,2.5-3.6,4.5-5,6.7c-1.9,3.1-1.1,8.5,1.3,10.5c2,1.7,3.7,3.7,5.7,5.4
		c1,0.8,2.4,1,3.6,1.5c0.1-1.2,0.3-2.3,0.3-3.5c0.1-3.5,0.2-7.1,0.1-10.6c0-1.5-0.1-3.3-0.9-4.4
		C596.6,116.2,594.7,114.6,592.8,112.6z"/>
</g>
</svg>
